<svg xmlns="http://www.w3.org/2000/svg" xmlns:xlink="http://www.w3.org/1999/xlink" width="652" zoomAndPan="magnify" viewBox="0 0 488.87997 287.25" height="383" preserveAspectRatio="xMidYMid meet" version="1.0"><defs><clipPath id="05bb4ec163"><path d="M 104.722656 3.535156 L 384.492188 3.535156 L 384.492188 283 L 104.722656 283 Z M 104.722656 3.535156 " clip-rule="nonzero"/></clipPath></defs><g clip-path="url(#05bb4ec163)"><path fill="#693c9e" d="M 232.628906 145.457031 L 273.660156 186.488281 C 279.738281 192.566406 279.738281 202.367188 273.660156 208.441406 C 267.632812 214.496094 257.785156 214.496094 251.730469 208.441406 L 201.894531 158.605469 C 193.433594 150.144531 193.433594 136.351562 201.894531 127.894531 L 251.730469 78.054688 C 257.785156 72.003906 267.632812 72.003906 273.660156 78.054688 C 279.738281 84.109375 279.738281 93.933594 273.660156 99.984375 L 232.628906 141.066406 C 231.414062 142.28125 231.414062 144.242188 232.628906 145.457031 Z M 244.4375 3.535156 C 167.289062 3.535156 104.722656 66.074219 104.722656 143.25 C 104.722656 220.398438 167.289062 282.964844 244.4375 282.964844 C 321.613281 282.964844 384.152344 220.398438 384.152344 143.25 C 384.152344 66.074219 321.613281 3.535156 244.4375 3.535156 " fill-opacity="1" fill-rule="nonzero"/></g></svg>