<svg xmlns="http://www.w3.org/2000/svg" xmlns:xlink="http://www.w3.org/1999/xlink" width="500" zoomAndPan="magnify" viewBox="0 0 375 374.999991" height="500" preserveAspectRatio="xMidYMid meet" version="1.0"><defs><g/><clipPath id="681a016f86"><path d="M 112 72.9375 L 169 72.9375 L 169 233 L 112 233 Z M 112 72.9375 " clip-rule="nonzero"/></clipPath><clipPath id="abc2541beb"><path d="M 176 104 L 234 104 L 234 263.4375 L 176 263.4375 Z M 176 104 " clip-rule="nonzero"/></clipPath><clipPath id="679dae6e66"><path d="M 253 79 L 262.714844 79 L 262.714844 90 L 253 90 Z M 253 79 " clip-rule="nonzero"/></clipPath></defs><g clip-path="url(#681a016f86)"><path fill="#a7dae1" d="M 112.011719 162.511719 L 112.011719 142.625 C 116.042969 142.40625 119.082031 141.796875 121.125 140.800781 C 123.167969 139.804688 124.9375 138.136719 126.425781 135.789062 C 127.917969 133.441406 128.941406 130.5 129.492188 126.964844 C 129.933594 124.3125 130.15625 119.703125 130.15625 113.128906 C 130.15625 102.410156 130.652344 94.941406 131.648438 90.714844 C 132.640625 86.492188 134.433594 83.089844 137.03125 80.523438 C 139.628906 77.953125 143.414062 75.925781 148.382812 74.433594 C 151.753906 73.441406 157.054688 72.941406 164.292969 72.941406 L 168.683594 72.941406 L 168.683594 92.746094 C 162.550781 92.746094 158.617188 93.089844 156.878906 93.78125 C 155.136719 94.472656 153.851562 95.519531 153.023438 96.929688 C 152.195312 98.335938 151.78125 100.753906 151.78125 104.179688 C 151.78125 107.660156 151.53125 114.261719 151.035156 123.980469 C 150.757812 129.449219 150.042969 133.882812 148.882812 137.28125 C 147.722656 140.675781 146.242188 143.480469 144.449219 145.691406 C 142.652344 147.898438 139.902344 150.191406 136.203125 152.566406 C 139.464844 154.445312 142.128906 156.640625 144.199219 159.15625 C 146.273438 161.667969 147.859375 164.71875 148.964844 168.3125 C 150.070312 171.902344 150.785156 176.707031 151.117188 182.726562 C 151.503906 191.898438 151.699219 197.75 151.699219 200.292969 C 151.699219 203.9375 152.140625 206.476562 153.023438 207.914062 C 153.90625 209.351562 155.246094 210.445312 157.042969 211.1875 C 158.835938 211.933594 162.71875 212.304688 168.683594 212.304688 L 168.683594 232.191406 L 164.292969 232.191406 C 156.835938 232.191406 151.117188 231.597656 147.140625 230.410156 C 143.164062 229.222656 139.808594 227.246094 137.074219 224.488281 C 134.339844 221.722656 132.503906 218.3125 131.5625 214.253906 C 130.625 210.191406 130.15625 203.800781 130.15625 195.074219 C 130.15625 184.910156 129.710938 178.308594 128.828125 175.269531 C 127.613281 170.851562 125.777344 167.6875 123.320312 165.78125 C 120.859375 163.878906 117.089844 162.785156 112.011719 162.511719 " fill-opacity="1" fill-rule="nonzero"/></g><path fill="#64259b" d="M 237.710938 114.195312 L 224.742188 114.195312 L 224.742188 101.226562 L 237.710938 101.226562 L 237.710938 114.195312 " fill-opacity="1" fill-rule="nonzero"/><path fill="#64259b" d="M 234.652344 140.132812 L 224.742188 140.132812 L 224.742188 130.222656 L 234.652344 130.222656 L 234.652344 140.132812 " fill-opacity="1" fill-rule="nonzero"/><g clip-path="url(#abc2541beb)"><path fill="#64259b" d="M 196.921875 124.105469 L 196.921875 114.195312 L 206.832031 114.195312 L 206.832031 124.105469 Z M 222.125 170.429688 C 219.640625 168.523438 217.789062 165.359375 216.574219 160.941406 C 215.90625 158.449219 215.507812 153.671875 215.378906 146.617188 L 206.832031 146.617188 L 206.832031 133.648438 L 215.191406 133.648438 C 214.984375 128.644531 214.546875 124.75 213.882812 121.957031 C 212.914062 117.898438 211.078125 114.472656 208.371094 111.683594 C 205.664062 108.894531 202.324219 106.917969 198.347656 105.757812 C 194.367188 104.597656 188.652344 104.019531 181.195312 104.019531 L 176.804688 104.019531 L 176.804688 123.820312 C 183.046875 123.820312 187.0625 124.195312 188.859375 124.941406 C 190.65625 125.6875 191.898438 126.75 192.589844 128.128906 C 193.277344 129.511719 193.652344 132.273438 193.707031 136.414062 C 193.984375 149.5625 194.421875 158.070312 195.03125 161.9375 C 195.96875 167.570312 197.738281 172.210938 200.335938 175.855469 C 202.210938 178.398438 205.195312 180.992188 209.285156 183.644531 C 206.136719 185.464844 203.550781 187.578125 201.535156 189.984375 C 199.519531 192.386719 197.90625 195.3125 196.6875 198.765625 C 195.476562 202.21875 194.730469 206.816406 194.453125 212.5625 C 194.011719 222.0625 193.773438 228.496094 193.75 231.867188 C 193.71875 235.234375 193.277344 237.625 192.421875 239.035156 C 191.566406 240.441406 190.226562 241.519531 188.402344 242.265625 C 186.582031 243.011719 182.714844 243.382812 176.804688 243.382812 L 176.804688 263.269531 L 181.195312 263.269531 C 188.429688 263.269531 193.734375 262.773438 197.101562 261.777344 C 202.128906 260.285156 205.941406 258.257812 208.539062 255.6875 C 211.132812 253.121094 212.914062 249.707031 213.882812 245.453125 C 214.847656 241.199219 215.332031 233.71875 215.332031 223 C 215.332031 216.484375 215.550781 211.898438 215.996094 209.246094 C 216.601562 205.710938 217.636719 202.769531 219.101562 200.421875 C 220.566406 198.074219 222.320312 196.402344 224.363281 195.410156 C 226.40625 194.414062 229.445312 193.808594 233.476562 193.585938 L 233.476562 173.699219 C 228.394531 173.425781 224.613281 172.332031 222.125 170.429688 " fill-opacity="1" fill-rule="nonzero"/></g><g clip-path="url(#679dae6e66)"><path fill="#64259b" d="M 262.996094 89.007812 L 253.089844 89.007812 L 253.089844 79.101562 L 262.996094 79.101562 L 262.996094 89.007812 " fill-opacity="1" fill-rule="nonzero"/></g><path fill="#64259b" d="M 213.316406 101.226562 L 194.820312 101.226562 L 194.820312 82.730469 L 213.316406 82.730469 L 213.316406 101.226562 " fill-opacity="1" fill-rule="nonzero"/><g fill="#64259b" fill-opacity="1"><g transform="translate(66.502514, 328.339612)"><g><path d="M 11.078125 0.40625 C 9.628906 0.40625 8.285156 0.15625 7.046875 -0.34375 C 5.816406 -0.84375 4.753906 -1.539062 3.859375 -2.4375 C 2.960938 -3.332031 2.265625 -4.394531 1.765625 -5.625 C 1.265625 -6.863281 1.015625 -8.207031 1.015625 -9.65625 C 1.015625 -11.101562 1.269531 -12.441406 1.78125 -13.671875 C 2.289062 -14.910156 2.992188 -15.984375 3.890625 -16.890625 C 4.785156 -17.796875 5.84375 -18.503906 7.0625 -19.015625 C 8.289062 -19.523438 9.617188 -19.78125 11.046875 -19.78125 C 12.546875 -19.78125 13.941406 -19.488281 15.234375 -18.90625 C 16.523438 -18.332031 17.644531 -17.503906 18.59375 -16.421875 L 15.640625 -13.5625 C 15.085938 -14.21875 14.425781 -14.734375 13.65625 -15.109375 C 12.894531 -15.484375 12.0625 -15.671875 11.15625 -15.671875 C 10.332031 -15.671875 9.570312 -15.519531 8.875 -15.21875 C 8.1875 -14.925781 7.585938 -14.515625 7.078125 -13.984375 C 6.566406 -13.453125 6.171875 -12.816406 5.890625 -12.078125 C 5.609375 -11.347656 5.46875 -10.5625 5.46875 -9.71875 C 5.46875 -8.851562 5.609375 -8.050781 5.890625 -7.3125 C 6.179688 -6.582031 6.582031 -5.945312 7.09375 -5.40625 C 7.601562 -4.863281 8.210938 -4.441406 8.921875 -4.140625 C 9.640625 -3.847656 10.425781 -3.703125 11.28125 -3.703125 C 12.207031 -3.703125 13.054688 -3.894531 13.828125 -4.28125 C 14.597656 -4.664062 15.253906 -5.1875 15.796875 -5.84375 L 18.734375 -3.03125 C 17.816406 -1.9375 16.707031 -1.085938 15.40625 -0.484375 C 14.101562 0.109375 12.660156 0.40625 11.078125 0.40625 Z M 11.078125 0.40625 "/></g></g></g><g fill="#64259b" fill-opacity="1"><g transform="translate(91.235562, 328.339612)"><g><path d="M 11.015625 0.40625 C 9.585938 0.40625 8.265625 0.144531 7.046875 -0.375 C 5.835938 -0.894531 4.785156 -1.609375 3.890625 -2.515625 C 2.992188 -3.421875 2.289062 -4.484375 1.78125 -5.703125 C 1.269531 -6.929688 1.015625 -8.257812 1.015625 -9.6875 C 1.015625 -11.113281 1.269531 -12.441406 1.78125 -13.671875 C 2.289062 -14.910156 2.992188 -15.984375 3.890625 -16.890625 C 4.785156 -17.796875 5.835938 -18.503906 7.046875 -19.015625 C 8.265625 -19.523438 9.585938 -19.78125 11.015625 -19.78125 C 12.421875 -19.78125 13.734375 -19.523438 14.953125 -19.015625 C 16.179688 -18.503906 17.242188 -17.796875 18.140625 -16.890625 C 19.046875 -15.984375 19.753906 -14.910156 20.265625 -13.671875 C 20.773438 -12.441406 21.03125 -11.113281 21.03125 -9.6875 C 21.03125 -8.257812 20.773438 -6.929688 20.265625 -5.703125 C 19.753906 -4.484375 19.046875 -3.421875 18.140625 -2.515625 C 17.242188 -1.609375 16.179688 -0.894531 14.953125 -0.375 C 13.734375 0.144531 12.421875 0.40625 11.015625 0.40625 Z M 11.015625 -3.703125 C 11.828125 -3.703125 12.570312 -3.847656 13.25 -4.140625 C 13.925781 -4.441406 14.507812 -4.863281 15 -5.40625 C 15.488281 -5.945312 15.875 -6.582031 16.15625 -7.3125 C 16.4375 -8.050781 16.578125 -8.84375 16.578125 -9.6875 C 16.578125 -10.539062 16.4375 -11.332031 16.15625 -12.0625 C 15.875 -12.789062 15.488281 -13.421875 15 -13.953125 C 14.507812 -14.484375 13.925781 -14.898438 13.25 -15.203125 C 12.570312 -15.515625 11.828125 -15.671875 11.015625 -15.671875 C 10.203125 -15.671875 9.457031 -15.515625 8.78125 -15.203125 C 8.113281 -14.898438 7.535156 -14.484375 7.046875 -13.953125 C 6.554688 -13.421875 6.171875 -12.789062 5.890625 -12.0625 C 5.609375 -11.332031 5.46875 -10.539062 5.46875 -9.6875 C 5.46875 -8.84375 5.609375 -8.050781 5.890625 -7.3125 C 6.171875 -6.582031 6.554688 -5.953125 7.046875 -5.421875 C 7.535156 -4.890625 8.113281 -4.46875 8.78125 -4.15625 C 9.457031 -3.851562 10.203125 -3.703125 11.015625 -3.703125 Z M 11.015625 -3.703125 "/></g></g></g><g fill="#64259b" fill-opacity="1"><g transform="translate(118.687799, 328.339612)"><g><path d="M 2.171875 -19.375 L 9.828125 -19.375 C 11.273438 -19.375 12.609375 -19.128906 13.828125 -18.640625 C 15.054688 -18.148438 16.117188 -17.472656 17.015625 -16.609375 C 17.910156 -15.753906 18.613281 -14.734375 19.125 -13.546875 C 19.632812 -12.359375 19.890625 -11.070312 19.890625 -9.6875 C 19.890625 -8.300781 19.632812 -7.019531 19.125 -5.84375 C 18.613281 -4.664062 17.910156 -3.640625 17.015625 -2.765625 C 16.117188 -1.898438 15.054688 -1.222656 13.828125 -0.734375 C 12.609375 -0.242188 11.273438 0 9.828125 0 L 2.171875 0 Z M 9.859375 -3.96875 C 10.671875 -3.96875 11.414062 -4.109375 12.09375 -4.390625 C 12.769531 -4.679688 13.359375 -5.082031 13.859375 -5.59375 C 14.359375 -6.101562 14.742188 -6.703125 15.015625 -7.390625 C 15.296875 -8.085938 15.4375 -8.851562 15.4375 -9.6875 C 15.4375 -10.519531 15.296875 -11.28125 15.015625 -11.96875 C 14.742188 -12.664062 14.359375 -13.269531 13.859375 -13.78125 C 13.359375 -14.289062 12.769531 -14.691406 12.09375 -14.984375 C 11.414062 -15.273438 10.671875 -15.421875 9.859375 -15.421875 L 6.390625 -15.421875 L 6.390625 -3.96875 Z M 9.859375 -3.96875 "/></g></g></g><g fill="#64259b" fill-opacity="1"><g transform="translate(145.011858, 328.339612)"><g><path d="M 2.171875 -19.375 L 13.25 -19.375 L 13.25 -15.421875 L 6.390625 -15.421875 L 6.390625 -11.859375 L 11.390625 -11.859375 L 11.390625 -7.890625 L 6.390625 -7.890625 L 6.390625 -3.96875 L 13.390625 -3.96875 L 13.390625 0 L 2.171875 0 Z M 2.171875 -19.375 "/></g></g></g><g fill="#64259b" fill-opacity="1"><g transform="translate(165.261134, 328.339612)"><g/></g></g><g fill="#64259b" fill-opacity="1"><g transform="translate(177.034639, 328.339612)"><g><path d="M 2.171875 -19.375 L 7.8125 -19.375 C 8.789062 -19.375 9.691406 -19.234375 10.515625 -18.953125 C 11.347656 -18.671875 12.0625 -18.289062 12.65625 -17.8125 C 13.257812 -17.332031 13.726562 -16.757812 14.0625 -16.09375 C 14.40625 -15.425781 14.578125 -14.707031 14.578125 -13.9375 C 14.578125 -13.125 14.390625 -12.390625 14.015625 -11.734375 C 13.640625 -11.085938 13.113281 -10.53125 12.4375 -10.0625 C 13.320312 -9.625 14.015625 -9.015625 14.515625 -8.234375 C 15.015625 -7.460938 15.265625 -6.597656 15.265625 -5.640625 C 15.265625 -4.828125 15.09375 -4.078125 14.75 -3.390625 C 14.40625 -2.710938 13.925781 -2.117188 13.3125 -1.609375 C 12.707031 -1.097656 11.972656 -0.703125 11.109375 -0.421875 C 10.253906 -0.140625 9.328125 0 8.328125 0 L 2.171875 0 Z M 8.1875 -3.46875 C 9.070312 -3.46875 9.769531 -3.675781 10.28125 -4.09375 C 10.789062 -4.507812 11.046875 -5.082031 11.046875 -5.8125 C 11.046875 -6.53125 10.796875 -7.085938 10.296875 -7.484375 C 9.796875 -7.890625 9.09375 -8.09375 8.1875 -8.09375 L 6.390625 -8.09375 L 6.390625 -3.46875 Z M 7.8125 -11.5625 C 8.582031 -11.5625 9.195312 -11.757812 9.65625 -12.15625 C 10.125 -12.550781 10.359375 -13.085938 10.359375 -13.765625 C 10.359375 -14.441406 10.125 -14.96875 9.65625 -15.34375 C 9.195312 -15.71875 8.582031 -15.90625 7.8125 -15.90625 L 6.390625 -15.90625 L 6.390625 -11.5625 Z M 7.8125 -11.5625 "/></g></g></g><g fill="#64259b" fill-opacity="1"><g transform="translate(198.874927, 328.339612)"><g><path d="M 2.171875 -19.375 L 6.390625 -19.375 L 6.390625 -3.96875 L 13.109375 -3.96875 L 13.109375 0 L 2.171875 0 Z M 2.171875 -19.375 "/></g></g></g><g fill="#64259b" fill-opacity="1"><g transform="translate(218.256376, 328.339612)"><g><path d="M 11.015625 0.40625 C 9.585938 0.40625 8.265625 0.144531 7.046875 -0.375 C 5.835938 -0.894531 4.785156 -1.609375 3.890625 -2.515625 C 2.992188 -3.421875 2.289062 -4.484375 1.78125 -5.703125 C 1.269531 -6.929688 1.015625 -8.257812 1.015625 -9.6875 C 1.015625 -11.113281 1.269531 -12.441406 1.78125 -13.671875 C 2.289062 -14.910156 2.992188 -15.984375 3.890625 -16.890625 C 4.785156 -17.796875 5.835938 -18.503906 7.046875 -19.015625 C 8.265625 -19.523438 9.585938 -19.78125 11.015625 -19.78125 C 12.421875 -19.78125 13.734375 -19.523438 14.953125 -19.015625 C 16.179688 -18.503906 17.242188 -17.796875 18.140625 -16.890625 C 19.046875 -15.984375 19.753906 -14.910156 20.265625 -13.671875 C 20.773438 -12.441406 21.03125 -11.113281 21.03125 -9.6875 C 21.03125 -8.257812 20.773438 -6.929688 20.265625 -5.703125 C 19.753906 -4.484375 19.046875 -3.421875 18.140625 -2.515625 C 17.242188 -1.609375 16.179688 -0.894531 14.953125 -0.375 C 13.734375 0.144531 12.421875 0.40625 11.015625 0.40625 Z M 11.015625 -3.703125 C 11.828125 -3.703125 12.570312 -3.847656 13.25 -4.140625 C 13.925781 -4.441406 14.507812 -4.863281 15 -5.40625 C 15.488281 -5.945312 15.875 -6.582031 16.15625 -7.3125 C 16.4375 -8.050781 16.578125 -8.84375 16.578125 -9.6875 C 16.578125 -10.539062 16.4375 -11.332031 16.15625 -12.0625 C 15.875 -12.789062 15.488281 -13.421875 15 -13.953125 C 14.507812 -14.484375 13.925781 -14.898438 13.25 -15.203125 C 12.570312 -15.515625 11.828125 -15.671875 11.015625 -15.671875 C 10.203125 -15.671875 9.457031 -15.515625 8.78125 -15.203125 C 8.113281 -14.898438 7.535156 -14.484375 7.046875 -13.953125 C 6.554688 -13.421875 6.171875 -12.789062 5.890625 -12.0625 C 5.609375 -11.332031 5.46875 -10.539062 5.46875 -9.6875 C 5.46875 -8.84375 5.609375 -8.050781 5.890625 -7.3125 C 6.171875 -6.582031 6.554688 -5.953125 7.046875 -5.421875 C 7.535156 -4.890625 8.113281 -4.46875 8.78125 -4.15625 C 9.457031 -3.851562 10.203125 -3.703125 11.015625 -3.703125 Z M 11.015625 -3.703125 "/></g></g></g><g fill="#64259b" fill-opacity="1"><g transform="translate(245.708613, 328.339612)"><g><path d="M 11.078125 0.40625 C 9.628906 0.40625 8.285156 0.15625 7.046875 -0.34375 C 5.816406 -0.84375 4.753906 -1.539062 3.859375 -2.4375 C 2.960938 -3.332031 2.265625 -4.394531 1.765625 -5.625 C 1.265625 -6.863281 1.015625 -8.207031 1.015625 -9.65625 C 1.015625 -11.101562 1.269531 -12.441406 1.78125 -13.671875 C 2.289062 -14.910156 2.992188 -15.984375 3.890625 -16.890625 C 4.785156 -17.796875 5.84375 -18.503906 7.0625 -19.015625 C 8.289062 -19.523438 9.617188 -19.78125 11.046875 -19.78125 C 12.546875 -19.78125 13.941406 -19.488281 15.234375 -18.90625 C 16.523438 -18.332031 17.644531 -17.503906 18.59375 -16.421875 L 15.640625 -13.5625 C 15.085938 -14.21875 14.425781 -14.734375 13.65625 -15.109375 C 12.894531 -15.484375 12.0625 -15.671875 11.15625 -15.671875 C 10.332031 -15.671875 9.570312 -15.519531 8.875 -15.21875 C 8.1875 -14.925781 7.585938 -14.515625 7.078125 -13.984375 C 6.566406 -13.453125 6.171875 -12.816406 5.890625 -12.078125 C 5.609375 -11.347656 5.46875 -10.5625 5.46875 -9.71875 C 5.46875 -8.851562 5.609375 -8.050781 5.890625 -7.3125 C 6.179688 -6.582031 6.582031 -5.945312 7.09375 -5.40625 C 7.601562 -4.863281 8.210938 -4.441406 8.921875 -4.140625 C 9.640625 -3.847656 10.425781 -3.703125 11.28125 -3.703125 C 12.207031 -3.703125 13.054688 -3.894531 13.828125 -4.28125 C 14.597656 -4.664062 15.253906 -5.1875 15.796875 -5.84375 L 18.734375 -3.03125 C 17.816406 -1.9375 16.707031 -1.085938 15.40625 -0.484375 C 14.101562 0.109375 12.660156 0.40625 11.078125 0.40625 Z M 11.078125 0.40625 "/></g></g></g><g fill="#64259b" fill-opacity="1"><g transform="translate(270.441661, 328.339612)"><g><path d="M 2.171875 -19.375 L 6.390625 -19.375 L 6.390625 -10.671875 L 12.40625 -19.375 L 17.265625 -19.375 L 10.765625 -10.15625 L 17.640625 0 L 12.578125 0 L 6.390625 -9.171875 L 6.390625 0 L 2.171875 0 Z M 2.171875 -19.375 "/></g></g></g><g fill="#64259b" fill-opacity="1"><g transform="translate(293.352266, 328.339612)"><g><path d="M 7.375 0.515625 C 5.875 0.515625 4.523438 0.179688 3.328125 -0.484375 C 2.128906 -1.160156 1.164062 -2.132812 0.4375 -3.40625 L 3.390625 -5.875 C 4.390625 -4.082031 5.707031 -3.1875 7.34375 -3.1875 C 8.070312 -3.1875 8.660156 -3.363281 9.109375 -3.71875 C 9.566406 -4.070312 9.796875 -4.539062 9.796875 -5.125 C 9.796875 -5.65625 9.570312 -6.117188 9.125 -6.515625 C 8.6875 -6.910156 7.890625 -7.359375 6.734375 -7.859375 C 4.941406 -8.648438 3.632812 -9.53125 2.8125 -10.5 C 2 -11.476562 1.59375 -12.644531 1.59375 -14 C 1.59375 -14.84375 1.742188 -15.617188 2.046875 -16.328125 C 2.359375 -17.046875 2.789062 -17.660156 3.34375 -18.171875 C 3.90625 -18.679688 4.570312 -19.078125 5.34375 -19.359375 C 6.113281 -19.640625 6.960938 -19.78125 7.890625 -19.78125 C 10.335938 -19.78125 12.410156 -18.726562 14.109375 -16.625 L 11.3125 -14.078125 C 10.769531 -14.796875 10.226562 -15.320312 9.6875 -15.65625 C 9.144531 -16 8.546875 -16.171875 7.890625 -16.171875 C 7.253906 -16.171875 6.75 -16.007812 6.375 -15.6875 C 6 -15.375 5.8125 -14.945312 5.8125 -14.40625 C 5.8125 -13.800781 6.0625 -13.304688 6.5625 -12.921875 C 7.0625 -12.535156 7.816406 -12.125 8.828125 -11.6875 C 10.648438 -10.875 11.972656 -9.96875 12.796875 -8.96875 C 13.617188 -7.976562 14.03125 -6.8125 14.03125 -5.46875 C 14.03125 -4.582031 13.863281 -3.769531 13.53125 -3.03125 C 13.207031 -2.300781 12.753906 -1.671875 12.171875 -1.140625 C 11.597656 -0.609375 10.898438 -0.203125 10.078125 0.078125 C 9.253906 0.367188 8.351562 0.515625 7.375 0.515625 Z M 7.375 0.515625 "/></g></g></g></svg>