<svg xmlns="http://www.w3.org/2000/svg" xmlns:xlink="http://www.w3.org/1999/xlink" width="500" zoomAndPan="magnify" viewBox="0 0 375 374.999991" height="500" preserveAspectRatio="xMidYMid meet" version="1.0"><defs><g/><clipPath id="1e8d85d9ab"><path d="M 152.40625 113.460938 L 179 113.460938 L 179 188 L 152.40625 188 Z M 152.40625 113.460938 " clip-rule="nonzero"/></clipPath><clipPath id="9878367e6a"><path d="M 182 127 L 209 127 L 209 201.960938 L 182 201.960938 Z M 182 127 " clip-rule="nonzero"/></clipPath><clipPath id="ef9bb281b8"><path d="M 217 116 L 222.90625 116 L 222.90625 121 L 217 121 Z M 217 116 " clip-rule="nonzero"/></clipPath></defs><rect x="-37.5" width="450" fill="#ffffff" y="-37.499999" height="449.999989" fill-opacity="1"/><rect x="-37.5" width="450" fill="#ffffff" y="-37.499999" height="449.999989" fill-opacity="1"/><g clip-path="url(#1e8d85d9ab)"><path fill="#a7dae1" d="M 152.429688 155.074219 L 152.429688 145.835938 C 154.300781 145.730469 155.714844 145.449219 156.664062 144.988281 C 157.613281 144.523438 158.433594 143.75 159.125 142.660156 C 159.820312 141.566406 160.292969 140.203125 160.550781 138.558594 C 160.753906 137.328125 160.859375 135.183594 160.859375 132.128906 C 160.859375 127.152344 161.089844 123.679688 161.550781 121.71875 C 162.015625 119.757812 162.847656 118.175781 164.054688 116.984375 C 165.257812 115.789062 167.015625 114.847656 169.328125 114.15625 C 170.890625 113.691406 173.355469 113.460938 176.71875 113.460938 L 178.757812 113.460938 L 178.757812 122.664062 C 175.910156 122.664062 174.082031 122.824219 173.273438 123.144531 C 172.464844 123.464844 171.867188 123.949219 171.484375 124.605469 C 171.097656 125.257812 170.90625 126.382812 170.90625 127.972656 C 170.90625 129.589844 170.789062 132.65625 170.558594 137.171875 C 170.429688 139.714844 170.097656 141.773438 169.558594 143.351562 C 169.019531 144.929688 168.332031 146.230469 167.5 147.257812 C 166.664062 148.285156 165.386719 149.351562 163.667969 150.453125 C 165.183594 151.324219 166.421875 152.347656 167.382812 153.511719 C 168.347656 154.679688 169.082031 156.097656 169.597656 157.765625 C 170.109375 159.433594 170.441406 161.667969 170.597656 164.464844 C 170.777344 168.722656 170.867188 171.445312 170.867188 172.625 C 170.867188 174.316406 171.070312 175.5 171.484375 176.164062 C 171.894531 176.832031 172.515625 177.339844 173.347656 177.6875 C 174.183594 178.03125 175.984375 178.207031 178.757812 178.207031 L 178.757812 187.445312 L 176.71875 187.445312 C 173.253906 187.445312 170.597656 187.167969 168.75 186.617188 C 166.902344 186.066406 165.34375 185.148438 164.074219 183.863281 C 162.800781 182.582031 161.949219 180.996094 161.511719 179.109375 C 161.078125 177.222656 160.859375 174.253906 160.859375 170.199219 C 160.859375 165.480469 160.652344 162.410156 160.242188 161 C 159.679688 158.945312 158.824219 157.476562 157.683594 156.59375 C 156.539062 155.707031 154.789062 155.199219 152.429688 155.074219 " fill-opacity="1" fill-rule="nonzero"/></g><path fill="#64259b" d="M 210.824219 132.628906 L 204.800781 132.628906 L 204.800781 126.601562 L 210.824219 126.601562 L 210.824219 132.628906 " fill-opacity="1" fill-rule="nonzero"/><path fill="#64259b" d="M 209.402344 144.675781 L 204.800781 144.675781 L 204.800781 140.074219 L 209.402344 140.074219 L 209.402344 144.675781 " fill-opacity="1" fill-rule="nonzero"/><g clip-path="url(#9878367e6a)"><path fill="#64259b" d="M 191.875 137.230469 L 191.875 132.628906 L 196.480469 132.628906 L 196.480469 137.230469 Z M 203.585938 158.75 C 202.429688 157.867188 201.570312 156.398438 201.007812 154.34375 C 200.695312 153.183594 200.511719 150.964844 200.449219 147.6875 L 196.480469 147.6875 L 196.480469 141.664062 L 200.363281 141.664062 C 200.265625 139.339844 200.0625 137.53125 199.753906 136.234375 C 199.304688 134.347656 198.453125 132.757812 197.195312 131.460938 C 195.9375 130.164062 194.386719 129.246094 192.539062 128.707031 C 190.691406 128.167969 188.035156 127.898438 184.570312 127.898438 L 182.53125 127.898438 L 182.53125 137.097656 C 185.429688 137.097656 187.296875 137.273438 188.128906 137.617188 C 188.964844 137.964844 189.542969 138.460938 189.863281 139.101562 C 190.183594 139.742188 190.355469 141.023438 190.382812 142.949219 C 190.511719 149.058594 190.714844 153.007812 191 154.804688 C 191.433594 157.421875 192.253906 159.578125 193.460938 161.273438 C 194.332031 162.453125 195.71875 163.660156 197.621094 164.890625 C 196.15625 165.738281 194.957031 166.71875 194.019531 167.835938 C 193.082031 168.953125 192.332031 170.3125 191.769531 171.914062 C 191.203125 173.519531 190.855469 175.65625 190.730469 178.324219 C 190.523438 182.738281 190.414062 185.726562 190.402344 187.292969 C 190.386719 188.859375 190.183594 189.96875 189.785156 190.621094 C 189.386719 191.277344 188.765625 191.777344 187.917969 192.125 C 187.070312 192.46875 185.273438 192.644531 182.53125 192.644531 L 182.53125 201.882812 L 184.570312 201.882812 C 187.929688 201.882812 190.394531 201.648438 191.960938 201.1875 C 194.296875 200.496094 196.066406 199.554688 197.273438 198.359375 C 198.476562 197.167969 199.304688 195.582031 199.753906 193.605469 C 200.203125 191.628906 200.429688 188.152344 200.429688 183.171875 C 200.429688 180.144531 200.53125 178.015625 200.738281 176.785156 C 201.019531 175.140625 201.5 173.777344 202.179688 172.683594 C 202.859375 171.59375 203.675781 170.816406 204.625 170.355469 C 205.574219 169.894531 206.984375 169.613281 208.859375 169.507812 L 208.859375 160.269531 C 206.496094 160.144531 204.738281 159.636719 203.585938 158.75 " fill-opacity="1" fill-rule="nonzero"/></g><g clip-path="url(#ef9bb281b8)"><path fill="#64259b" d="M 222.574219 120.925781 L 217.96875 120.925781 L 217.96875 116.324219 L 222.574219 116.324219 L 222.574219 120.925781 " fill-opacity="1" fill-rule="nonzero"/></g><path fill="#64259b" d="M 199.492188 126.601562 L 190.898438 126.601562 L 190.898438 118.007812 L 199.492188 118.007812 L 199.492188 126.601562 " fill-opacity="1" fill-rule="nonzero"/><g fill="#64259b" fill-opacity="1"><g transform="translate(93.7801, 237.236767)"><g><path d="M 8.578125 0.3125 C 7.460938 0.3125 6.425781 0.117188 5.46875 -0.265625 C 4.507812 -0.648438 3.679688 -1.191406 2.984375 -1.890625 C 2.296875 -2.585938 1.753906 -3.410156 1.359375 -4.359375 C 0.972656 -5.316406 0.78125 -6.359375 0.78125 -7.484375 C 0.78125 -8.609375 0.976562 -9.644531 1.375 -10.59375 C 1.769531 -11.550781 2.316406 -12.378906 3.015625 -13.078125 C 3.710938 -13.785156 4.535156 -14.335938 5.484375 -14.734375 C 6.429688 -15.128906 7.457031 -15.328125 8.5625 -15.328125 C 9.726562 -15.328125 10.8125 -15.101562 11.8125 -14.65625 C 12.8125 -14.207031 13.675781 -13.566406 14.40625 -12.734375 L 12.125 -10.515625 C 11.6875 -11.015625 11.171875 -11.410156 10.578125 -11.703125 C 9.992188 -11.992188 9.351562 -12.140625 8.65625 -12.140625 C 8.007812 -12.140625 7.414062 -12.023438 6.875 -11.796875 C 6.34375 -11.566406 5.878906 -11.242188 5.484375 -10.828125 C 5.085938 -10.421875 4.78125 -9.929688 4.5625 -9.359375 C 4.34375 -8.796875 4.234375 -8.1875 4.234375 -7.53125 C 4.234375 -6.851562 4.34375 -6.226562 4.5625 -5.65625 C 4.789062 -5.09375 5.101562 -4.601562 5.5 -4.1875 C 5.894531 -3.769531 6.367188 -3.445312 6.921875 -3.21875 C 7.472656 -2.988281 8.078125 -2.875 8.734375 -2.875 C 9.453125 -2.875 10.109375 -3.019531 10.703125 -3.3125 C 11.304688 -3.613281 11.816406 -4.019531 12.234375 -4.53125 L 14.515625 -2.359375 C 13.796875 -1.503906 12.929688 -0.84375 11.921875 -0.375 C 10.921875 0.0820312 9.804688 0.3125 8.578125 0.3125 Z M 8.578125 0.3125 "/></g></g></g><g fill="#64259b" fill-opacity="1"><g transform="translate(112.937349, 237.236767)"><g><path d="M 8.53125 0.3125 C 7.425781 0.3125 6.40625 0.113281 5.46875 -0.28125 C 4.53125 -0.6875 3.710938 -1.238281 3.015625 -1.9375 C 2.316406 -2.644531 1.769531 -3.472656 1.375 -4.421875 C 0.976562 -5.367188 0.78125 -6.394531 0.78125 -7.5 C 0.78125 -8.613281 0.976562 -9.644531 1.375 -10.59375 C 1.769531 -11.550781 2.316406 -12.378906 3.015625 -13.078125 C 3.710938 -13.785156 4.53125 -14.335938 5.46875 -14.734375 C 6.40625 -15.128906 7.425781 -15.328125 8.53125 -15.328125 C 9.625 -15.328125 10.644531 -15.128906 11.59375 -14.734375 C 12.539062 -14.335938 13.363281 -13.785156 14.0625 -13.078125 C 14.757812 -12.378906 15.304688 -11.550781 15.703125 -10.59375 C 16.097656 -9.644531 16.296875 -8.613281 16.296875 -7.5 C 16.296875 -6.394531 16.097656 -5.367188 15.703125 -4.421875 C 15.304688 -3.472656 14.757812 -2.644531 14.0625 -1.9375 C 13.363281 -1.238281 12.539062 -0.6875 11.59375 -0.28125 C 10.644531 0.113281 9.625 0.3125 8.53125 0.3125 Z M 8.53125 -2.875 C 9.164062 -2.875 9.742188 -2.988281 10.265625 -3.21875 C 10.785156 -3.445312 11.234375 -3.769531 11.609375 -4.1875 C 11.992188 -4.601562 12.296875 -5.09375 12.515625 -5.65625 C 12.734375 -6.226562 12.84375 -6.84375 12.84375 -7.5 C 12.84375 -8.15625 12.734375 -8.765625 12.515625 -9.328125 C 12.296875 -9.898438 11.992188 -10.390625 11.609375 -10.796875 C 11.234375 -11.210938 10.785156 -11.539062 10.265625 -11.78125 C 9.742188 -12.019531 9.164062 -12.140625 8.53125 -12.140625 C 7.90625 -12.140625 7.332031 -12.019531 6.8125 -11.78125 C 6.289062 -11.539062 5.835938 -11.210938 5.453125 -10.796875 C 5.078125 -10.390625 4.78125 -9.898438 4.5625 -9.328125 C 4.34375 -8.765625 4.234375 -8.15625 4.234375 -7.5 C 4.234375 -6.84375 4.34375 -6.226562 4.5625 -5.65625 C 4.78125 -5.09375 5.078125 -4.601562 5.453125 -4.1875 C 5.835938 -3.78125 6.289062 -3.457031 6.8125 -3.21875 C 7.332031 -2.988281 7.90625 -2.875 8.53125 -2.875 Z M 8.53125 -2.875 "/></g></g></g><g fill="#64259b" fill-opacity="1"><g transform="translate(134.200774, 237.236767)"><g><path d="M 1.6875 -15.015625 L 7.625 -15.015625 C 8.738281 -15.015625 9.769531 -14.820312 10.71875 -14.4375 C 11.664062 -14.0625 12.488281 -13.539062 13.1875 -12.875 C 13.882812 -12.207031 14.429688 -11.414062 14.828125 -10.5 C 15.222656 -9.582031 15.421875 -8.582031 15.421875 -7.5 C 15.421875 -6.425781 15.222656 -5.429688 14.828125 -4.515625 C 14.429688 -3.609375 13.882812 -2.816406 13.1875 -2.140625 C 12.488281 -1.472656 11.664062 -0.945312 10.71875 -0.5625 C 9.769531 -0.1875 8.738281 0 7.625 0 L 1.6875 0 Z M 7.640625 -3.0625 C 8.265625 -3.0625 8.835938 -3.171875 9.359375 -3.390625 C 9.890625 -3.617188 10.347656 -3.929688 10.734375 -4.328125 C 11.117188 -4.722656 11.421875 -5.191406 11.640625 -5.734375 C 11.859375 -6.273438 11.96875 -6.863281 11.96875 -7.5 C 11.96875 -8.144531 11.859375 -8.734375 11.640625 -9.265625 C 11.421875 -9.804688 11.117188 -10.273438 10.734375 -10.671875 C 10.347656 -11.066406 9.890625 -11.375 9.359375 -11.59375 C 8.835938 -11.820312 8.265625 -11.9375 7.640625 -11.9375 L 4.953125 -11.9375 L 4.953125 -3.0625 Z M 7.640625 -3.0625 "/></g></g></g><g fill="#64259b" fill-opacity="1"><g transform="translate(154.590358, 237.236767)"><g><path d="M 1.6875 -15.015625 L 10.265625 -15.015625 L 10.265625 -11.9375 L 4.953125 -11.9375 L 4.953125 -9.1875 L 8.828125 -9.1875 L 8.828125 -6.109375 L 4.953125 -6.109375 L 4.953125 -3.0625 L 10.375 -3.0625 L 10.375 0 L 1.6875 0 Z M 1.6875 -15.015625 "/></g></g></g><g fill="#64259b" fill-opacity="1"><g transform="translate(170.274652, 237.236767)"><g/></g></g><g fill="#64259b" fill-opacity="1"><g transform="translate(179.393947, 237.236767)"><g><path d="M 1.6875 -15.015625 L 6.046875 -15.015625 C 6.804688 -15.015625 7.507812 -14.90625 8.15625 -14.6875 C 8.800781 -14.46875 9.351562 -14.171875 9.8125 -13.796875 C 10.28125 -13.421875 10.644531 -12.976562 10.90625 -12.46875 C 11.164062 -11.957031 11.296875 -11.398438 11.296875 -10.796875 C 11.296875 -10.171875 11.148438 -9.601562 10.859375 -9.09375 C 10.566406 -8.582031 10.160156 -8.148438 9.640625 -7.796875 C 10.328125 -7.453125 10.863281 -6.976562 11.25 -6.375 C 11.632812 -5.78125 11.828125 -5.113281 11.828125 -4.375 C 11.828125 -3.738281 11.691406 -3.15625 11.421875 -2.625 C 11.160156 -2.101562 10.789062 -1.644531 10.3125 -1.25 C 9.84375 -0.851562 9.273438 -0.546875 8.609375 -0.328125 C 7.953125 -0.109375 7.234375 0 6.453125 0 L 1.6875 0 Z M 6.34375 -2.6875 C 7.03125 -2.6875 7.570312 -2.847656 7.96875 -3.171875 C 8.363281 -3.492188 8.5625 -3.9375 8.5625 -4.5 C 8.5625 -5.050781 8.363281 -5.484375 7.96875 -5.796875 C 7.582031 -6.117188 7.039062 -6.28125 6.34375 -6.28125 L 4.953125 -6.28125 L 4.953125 -2.6875 Z M 6.046875 -8.96875 C 6.648438 -8.96875 7.128906 -9.117188 7.484375 -9.421875 C 7.835938 -9.722656 8.015625 -10.140625 8.015625 -10.671875 C 8.015625 -11.191406 7.835938 -11.597656 7.484375 -11.890625 C 7.128906 -12.179688 6.648438 -12.328125 6.046875 -12.328125 L 4.953125 -12.328125 L 4.953125 -8.96875 Z M 6.046875 -8.96875 "/></g></g></g><g fill="#64259b" fill-opacity="1"><g transform="translate(196.310576, 237.236767)"><g><path d="M 1.6875 -15.015625 L 4.953125 -15.015625 L 4.953125 -3.0625 L 10.15625 -3.0625 L 10.15625 0 L 1.6875 0 Z M 1.6875 -15.015625 "/></g></g></g><g fill="#64259b" fill-opacity="1"><g transform="translate(211.322686, 237.236767)"><g><path d="M 8.53125 0.3125 C 7.425781 0.3125 6.40625 0.113281 5.46875 -0.28125 C 4.53125 -0.6875 3.710938 -1.238281 3.015625 -1.9375 C 2.316406 -2.644531 1.769531 -3.472656 1.375 -4.421875 C 0.976562 -5.367188 0.78125 -6.394531 0.78125 -7.5 C 0.78125 -8.613281 0.976562 -9.644531 1.375 -10.59375 C 1.769531 -11.550781 2.316406 -12.378906 3.015625 -13.078125 C 3.710938 -13.785156 4.53125 -14.335938 5.46875 -14.734375 C 6.40625 -15.128906 7.425781 -15.328125 8.53125 -15.328125 C 9.625 -15.328125 10.644531 -15.128906 11.59375 -14.734375 C 12.539062 -14.335938 13.363281 -13.785156 14.0625 -13.078125 C 14.757812 -12.378906 15.304688 -11.550781 15.703125 -10.59375 C 16.097656 -9.644531 16.296875 -8.613281 16.296875 -7.5 C 16.296875 -6.394531 16.097656 -5.367188 15.703125 -4.421875 C 15.304688 -3.472656 14.757812 -2.644531 14.0625 -1.9375 C 13.363281 -1.238281 12.539062 -0.6875 11.59375 -0.28125 C 10.644531 0.113281 9.625 0.3125 8.53125 0.3125 Z M 8.53125 -2.875 C 9.164062 -2.875 9.742188 -2.988281 10.265625 -3.21875 C 10.785156 -3.445312 11.234375 -3.769531 11.609375 -4.1875 C 11.992188 -4.601562 12.296875 -5.09375 12.515625 -5.65625 C 12.734375 -6.226562 12.84375 -6.84375 12.84375 -7.5 C 12.84375 -8.15625 12.734375 -8.765625 12.515625 -9.328125 C 12.296875 -9.898438 11.992188 -10.390625 11.609375 -10.796875 C 11.234375 -11.210938 10.785156 -11.539062 10.265625 -11.78125 C 9.742188 -12.019531 9.164062 -12.140625 8.53125 -12.140625 C 7.90625 -12.140625 7.332031 -12.019531 6.8125 -11.78125 C 6.289062 -11.539062 5.835938 -11.210938 5.453125 -10.796875 C 5.078125 -10.390625 4.78125 -9.898438 4.5625 -9.328125 C 4.34375 -8.765625 4.234375 -8.15625 4.234375 -7.5 C 4.234375 -6.84375 4.34375 -6.226562 4.5625 -5.65625 C 4.78125 -5.09375 5.078125 -4.601562 5.453125 -4.1875 C 5.835938 -3.78125 6.289062 -3.457031 6.8125 -3.21875 C 7.332031 -2.988281 7.90625 -2.875 8.53125 -2.875 Z M 8.53125 -2.875 "/></g></g></g><g fill="#64259b" fill-opacity="1"><g transform="translate(232.586112, 237.236767)"><g><path d="M 8.578125 0.3125 C 7.460938 0.3125 6.425781 0.117188 5.46875 -0.265625 C 4.507812 -0.648438 3.679688 -1.191406 2.984375 -1.890625 C 2.296875 -2.585938 1.753906 -3.410156 1.359375 -4.359375 C 0.972656 -5.316406 0.78125 -6.359375 0.78125 -7.484375 C 0.78125 -8.609375 0.976562 -9.644531 1.375 -10.59375 C 1.769531 -11.550781 2.316406 -12.378906 3.015625 -13.078125 C 3.710938 -13.785156 4.535156 -14.335938 5.484375 -14.734375 C 6.429688 -15.128906 7.457031 -15.328125 8.5625 -15.328125 C 9.726562 -15.328125 10.8125 -15.101562 11.8125 -14.65625 C 12.8125 -14.207031 13.675781 -13.566406 14.40625 -12.734375 L 12.125 -10.515625 C 11.6875 -11.015625 11.171875 -11.410156 10.578125 -11.703125 C 9.992188 -11.992188 9.351562 -12.140625 8.65625 -12.140625 C 8.007812 -12.140625 7.414062 -12.023438 6.875 -11.796875 C 6.34375 -11.566406 5.878906 -11.242188 5.484375 -10.828125 C 5.085938 -10.421875 4.78125 -9.929688 4.5625 -9.359375 C 4.34375 -8.796875 4.234375 -8.1875 4.234375 -7.53125 C 4.234375 -6.851562 4.34375 -6.226562 4.5625 -5.65625 C 4.789062 -5.09375 5.101562 -4.601562 5.5 -4.1875 C 5.894531 -3.769531 6.367188 -3.445312 6.921875 -3.21875 C 7.472656 -2.988281 8.078125 -2.875 8.734375 -2.875 C 9.453125 -2.875 10.109375 -3.019531 10.703125 -3.3125 C 11.304688 -3.613281 11.816406 -4.019531 12.234375 -4.53125 L 14.515625 -2.359375 C 13.796875 -1.503906 12.929688 -0.84375 11.921875 -0.375 C 10.921875 0.0820312 9.804688 0.3125 8.578125 0.3125 Z M 8.578125 0.3125 "/></g></g></g><g fill="#64259b" fill-opacity="1"><g transform="translate(251.74336, 237.236767)"><g><path d="M 1.6875 -15.015625 L 4.953125 -15.015625 L 4.953125 -8.265625 L 9.609375 -15.015625 L 13.375 -15.015625 L 8.328125 -7.859375 L 13.671875 0 L 9.75 0 L 4.953125 -7.109375 L 4.953125 0 L 1.6875 0 Z M 1.6875 -15.015625 "/></g></g></g><g fill="#64259b" fill-opacity="1"><g transform="translate(269.489016, 237.236767)"><g><path d="M 5.71875 0.40625 C 4.550781 0.40625 3.503906 0.144531 2.578125 -0.375 C 1.648438 -0.90625 0.90625 -1.660156 0.34375 -2.640625 L 2.625 -4.546875 C 3.394531 -3.160156 4.414062 -2.46875 5.6875 -2.46875 C 6.257812 -2.46875 6.71875 -2.601562 7.0625 -2.875 C 7.414062 -3.15625 7.59375 -3.519531 7.59375 -3.96875 C 7.59375 -4.382812 7.421875 -4.742188 7.078125 -5.046875 C 6.734375 -5.359375 6.113281 -5.707031 5.21875 -6.09375 C 3.832031 -6.707031 2.820312 -7.390625 2.1875 -8.140625 C 1.550781 -8.898438 1.234375 -9.800781 1.234375 -10.84375 C 1.234375 -11.5 1.351562 -12.101562 1.59375 -12.65625 C 1.832031 -13.207031 2.164062 -13.679688 2.59375 -14.078125 C 3.03125 -14.472656 3.546875 -14.78125 4.140625 -15 C 4.742188 -15.21875 5.398438 -15.328125 6.109375 -15.328125 C 8.015625 -15.328125 9.625 -14.515625 10.9375 -12.890625 L 8.765625 -10.90625 C 8.347656 -11.457031 7.925781 -11.863281 7.5 -12.125 C 7.082031 -12.394531 6.617188 -12.53125 6.109375 -12.53125 C 5.617188 -12.53125 5.226562 -12.40625 4.9375 -12.15625 C 4.644531 -11.90625 4.5 -11.570312 4.5 -11.15625 C 4.5 -10.695312 4.691406 -10.316406 5.078125 -10.015625 C 5.472656 -9.710938 6.054688 -9.390625 6.828125 -9.046875 C 8.253906 -8.421875 9.28125 -7.722656 9.90625 -6.953125 C 10.539062 -6.179688 10.859375 -5.273438 10.859375 -4.234375 C 10.859375 -3.546875 10.734375 -2.914062 10.484375 -2.34375 C 10.234375 -1.78125 9.882812 -1.289062 9.4375 -0.875 C 8.988281 -0.46875 8.445312 -0.15625 7.8125 0.0625 C 7.175781 0.289062 6.476562 0.40625 5.71875 0.40625 Z M 5.71875 0.40625 "/></g></g></g></svg>